<svg width="26" height="26" viewBox="0 0 26 26" fill="none" xmlns="http://www.w3.org/2000/svg">
<circle cx="13" cy="13" r="12.5" fill="white" stroke="#F8F8F8"/>
<path d="M21 5H5V19.2973H21V5Z" fill="#5F5A4E"/>
<path d="M7.28444 19.2974H5V20.9996H7.28444V19.2974Z" fill="#EB5D48"/>
<path d="M9.56887 19.2974H7.28442V20.9996H9.56887V19.2974Z" fill="#F3923E"/>
<path d="M11.8533 19.2974H9.56885V20.9996H11.8533V19.2974Z" fill="#F6C900"/>
<path d="M14.1421 19.2974H11.8577V20.9996H14.1421V19.2974Z" fill="#49B170"/>
<path d="M16.4268 19.2974H14.1423V20.9996H16.4268V19.2974Z" fill="#00A3E5"/>
<path d="M18.7112 19.2974H16.4268V20.9996H18.7112V19.2974Z" fill="#6E74B6"/>
<path d="M20.9956 19.2974H18.7112V20.9996H20.9956V19.2974Z" fill="#BA4E97"/>
<path d="M17.4445 17.243C16.089 17.5764 14.6934 17.7498 13.2979 17.7587C9.85342 17.7587 8.05786 15.9493 8.05786 12.5172C8.05786 8.6006 9.54231 6.60449 13.6267 6.60449C14.9112 6.62672 16.1912 6.78677 17.4445 7.07129V9.7387H16.3201C16.0268 7.79149 15.8223 7.27579 13.609 7.27579C10.7868 7.27579 10.5379 10.3878 10.5379 12.5172C10.5379 14.6467 11.1112 17.1007 13.7334 17.1007C15.6801 17.1007 16.1823 16.2116 16.2579 14.4333H17.4445V17.243Z" fill="white"/>
</svg>
