<svg width="26" height="27" viewBox="0 0 26 27" fill="none" xmlns="http://www.w3.org/2000/svg">
<path d="M25.5 13.3C25.5 20.2036 19.9036 25.8 13 25.8C6.09644 25.8 0.5 20.2036 0.5 13.3C0.5 6.39649 6.09644 0.800049 13 0.800049C19.9036 0.800049 25.5 6.39649 25.5 13.3Z" fill="white" stroke="#ECECEC"/>
<path d="M9.05347 10.8425H9.95926C10.4581 10.8425 10.701 11.0985 10.701 11.5448C10.701 11.8336 10.6288 11.9912 10.3596 12.1028C10.6156 12.1684 10.806 12.3653 10.806 12.7591C10.806 13.3039 10.4975 13.5336 9.95926 13.5336H9.05347V10.8425ZM9.88049 11.9584C10.143 11.9584 10.2087 11.8402 10.2087 11.5974C10.2087 11.3611 10.1234 11.2364 9.8608 11.2364H9.51293V11.9584H9.88049ZM9.88049 13.153C10.1824 13.153 10.294 13.0282 10.294 12.746C10.294 12.4769 10.1956 12.3391 9.88706 12.3391H9.50636V13.153H9.88049Z" fill="#E30613"/>
<path d="M10.9971 12.9691C10.9971 12.5162 11.2596 12.3193 11.8766 12.3193H12.0144V12.2077C12.0144 12.0043 11.9882 11.8861 11.765 11.8861C11.5681 11.8861 11.3843 11.9715 11.2202 12.0633L11.0561 11.7483C11.2662 11.6104 11.4959 11.5186 11.811 11.5186C12.2507 11.5186 12.4542 11.6892 12.4542 12.1355V13.5402H12.1063L12.0538 13.3695C11.9422 13.4877 11.7913 13.5927 11.5812 13.5927C11.194 13.5927 10.9971 13.363 10.9971 12.9691ZM12.021 13.1004V12.6016H11.9488C11.5222 12.6016 11.45 12.7131 11.45 12.9626C11.45 13.1857 11.5156 13.2645 11.6863 13.2645C11.8307 13.2645 11.9422 13.1792 12.021 13.1004Z" fill="#E30613"/>
<path d="M12.8677 11.5711H13.2221L13.2681 11.7877C13.4256 11.6302 13.6094 11.5251 13.8457 11.5251C14.1542 11.5251 14.3379 11.6695 14.3379 12.0371V13.5402H13.8916V12.1487C13.8916 11.9452 13.826 11.8927 13.6816 11.8927C13.5437 11.8927 13.419 11.9649 13.3009 12.0699V13.5402H12.8677V11.5711Z" fill="#E30613"/>
<path d="M14.6465 12.5491C14.6465 11.8074 14.9353 11.5186 15.4473 11.5186C15.6901 11.5186 15.8608 11.5842 16.0314 11.7417L15.8017 12.0371C15.7032 11.9321 15.6113 11.8796 15.4669 11.8796C15.211 11.8796 15.1191 11.9846 15.1191 12.5425C15.1191 13.0938 15.2175 13.2251 15.4866 13.2251C15.6442 13.2251 15.7295 13.1529 15.828 13.061L16.0446 13.3498C15.9002 13.4942 15.7229 13.5861 15.4538 13.5861C14.9156 13.5927 14.6465 13.2579 14.6465 12.5491Z" fill="#E30613"/>
<path d="M16.1692 12.5491C16.1692 11.8074 16.4842 11.5186 16.9962 11.5186C17.5082 11.5186 17.8298 11.8139 17.8298 12.5556C17.8298 13.2973 17.5082 13.5927 17.0028 13.5927C16.4908 13.5927 16.1692 13.2908 16.1692 12.5491ZM17.3572 12.5491C17.3572 11.9846 17.2588 11.8533 16.9962 11.8533C16.7402 11.8533 16.6418 11.9911 16.6418 12.5556C16.6418 13.1135 16.7402 13.2579 17.0028 13.2579C17.2588 13.2579 17.3572 13.107 17.3572 12.5491Z" fill="#E30613"/>
<path d="M11.7649 16.5461V15.0627H12.2112V16.4411C12.2112 16.6512 12.29 16.7102 12.4344 16.7102C12.5722 16.7102 12.6969 16.6315 12.8151 16.533V15.0627H13.2549V17.0319H12.9004L12.8545 16.8153C12.6969 16.9728 12.546 17.0844 12.2966 17.0844C11.9881 17.0844 11.7649 16.9137 11.7649 16.5461Z" fill="#E30613"/>
<path d="M13.675 15.0628H14.0295L14.0754 15.2794C14.2329 15.1219 14.4167 15.0168 14.653 15.0168C14.9615 15.0168 15.1453 15.1612 15.1453 15.5288V17.0385H14.7055V15.6404C14.7055 15.4369 14.6399 15.3844 14.4955 15.3844C14.3576 15.3844 14.2329 15.4566 14.1148 15.5616V17.0385H13.6685V15.0628H13.675Z" fill="#E30613"/>
<path d="M15.6637 15.4043L15.4077 15.3583V15.0695H16.1035V17.0386H15.6637V15.4043ZM15.5981 14.4853C15.5981 14.3278 15.7228 14.1965 15.8803 14.1965C16.0378 14.1965 16.1625 14.3212 16.1625 14.4853C16.1625 14.6429 16.0378 14.7676 15.8737 14.7676C15.7228 14.7676 15.5981 14.6429 15.5981 14.4853Z" fill="#E30613"/>
<path d="M16.4319 16.0473C16.4319 15.3056 16.7207 15.0168 17.2327 15.0168C17.4755 15.0168 17.6462 15.0825 17.8168 15.24L17.5871 15.5354C17.4886 15.4304 17.3967 15.3778 17.2523 15.3778C16.9964 15.3778 16.9045 15.4829 16.9045 16.0408C16.9045 16.5921 17.0029 16.7234 17.272 16.7234C17.4296 16.7234 17.5149 16.6512 17.6134 16.5593L17.83 16.8481C17.6856 16.9925 17.5083 17.0844 17.2392 17.0844C16.7076 17.0844 16.4319 16.7562 16.4319 16.0473Z" fill="#E30613"/>
<path d="M18.2826 15.4043L18.0266 15.3583V15.0695H18.7224V17.0386H18.2826V15.4043ZM18.217 14.4853C18.217 14.3278 18.3417 14.1965 18.4992 14.1965C18.6567 14.1965 18.7814 14.3212 18.7814 14.4853C18.7814 14.6429 18.6567 14.7676 18.4926 14.7676C18.3417 14.7676 18.217 14.6429 18.217 14.4853Z" fill="#E30613"/>
<path d="M19.1558 15.0628H19.5102L19.5627 15.2662C19.7137 15.1087 19.8843 15.0103 20.0878 15.0103C20.4816 15.0103 20.7507 15.2269 20.7507 16.0211C20.7507 16.8021 20.5341 17.0844 20.0878 17.0844C19.8778 17.0844 19.7071 16.9859 19.6021 16.8875V17.7998H19.1558V15.0628ZM20.2782 16.0473C20.2782 15.4894 20.206 15.3778 19.9697 15.3778C19.8121 15.3778 19.7071 15.45 19.6021 15.555V16.5724C19.6874 16.6512 19.8056 16.7234 19.9434 16.7234C20.1928 16.7234 20.2782 16.6184 20.2782 16.0473Z" fill="#E30613"/>
<path d="M20.9607 16.4608C20.9607 16.0079 21.2232 15.811 21.8402 15.811H21.9781V15.6994C21.9781 15.496 21.9518 15.3778 21.7286 15.3778C21.5317 15.3778 21.348 15.4631 21.1839 15.555L21.0198 15.24C21.2298 15.1021 21.4595 15.0103 21.7746 15.0103C22.2144 15.0103 22.4178 15.1809 22.4178 15.6272V17.0319H22.07L22.0175 16.8612C21.9059 16.9794 21.7549 17.0844 21.5449 17.0844C21.1576 17.0844 20.9607 16.8612 20.9607 16.4608ZM21.9846 16.5987V16.0998H21.9124C21.4858 16.0998 21.4136 16.2114 21.4136 16.4608C21.4136 16.684 21.4792 16.7628 21.6499 16.7628C21.7943 16.7628 21.9059 16.6774 21.9846 16.5987Z" fill="#E30613"/>
<path d="M22.8381 16.5267V14.2031H23.2845V16.5792C23.2845 16.7039 23.3173 16.7302 23.4223 16.7302C23.4551 16.7302 23.4814 16.7236 23.4814 16.7236L23.5339 17.0255C23.4748 17.0518 23.3567 17.078 23.2516 17.078C22.9235 17.078 22.8381 16.9139 22.8381 16.5267Z" fill="#E30613"/>
<path d="M10.6951 14.3408L10.2028 16.0539L9.71708 14.3408H9.04102V17.0319H9.50047V15.647C9.50047 15.6404 9.50047 15.6338 9.50047 15.6273V15.0103L9.66457 15.5288C9.67113 15.5485 9.67769 15.5616 9.67769 15.5813L9.98619 16.5528H10.4194L10.5835 16.0277L10.7082 15.6404L10.7279 15.5813V15.5748L10.9051 15.0103V17.0253H11.3646V14.3342H10.6951V14.3408Z" fill="#E30613"/>
<path d="M3.79421 13.1923V11.9584L3.31506 12.0896L3.22317 11.8074L3.99112 11.4333H4.339V13.1989H4.73282C4.92973 13.0742 5.10039 12.956 5.23166 12.8313C5.40232 12.6804 5.52703 12.536 5.60579 12.3981C5.68456 12.2603 5.7305 12.1487 5.7305 12.0502C5.7305 11.9518 5.70425 11.8861 5.6583 11.8468C5.61235 11.8074 5.54672 11.7877 5.46795 11.7877C5.3695 11.7877 5.25791 11.8139 5.13977 11.873C5.02162 11.9321 4.92317 11.9912 4.85097 12.0699L4.58842 11.7089C4.73282 11.6039 4.89035 11.5186 5.06757 11.4661C5.24479 11.407 5.41544 11.3807 5.57297 11.3807C5.71081 11.3807 5.83552 11.4004 5.9471 11.4464C6.05869 11.4923 6.15058 11.558 6.21622 11.6433C6.28185 11.7286 6.31467 11.8402 6.31467 11.978L6.53127 11.4464H7.79807L7.64054 11.9846H6.72819L6.57722 12.3259C6.83977 12.4112 7.05637 12.536 7.22703 12.6869C7.39768 12.8379 7.47645 13.0282 7.47645 13.2645C7.47645 13.3236 7.46988 13.3761 7.46332 13.4286C7.82432 12.9954 8.04093 12.4309 8.04093 11.8205C8.04093 10.429 6.91197 9.30005 5.52046 9.30005C4.12896 9.30005 3 10.429 3 11.8205C3 12.3325 3.15753 12.8116 3.42008 13.212H3.79421V13.1923Z" fill="#E30613"/>
<path d="M6.90539 13.3696C6.90539 12.9299 6.49187 12.6411 6.13087 12.5164C6.0521 12.6345 5.96021 12.7461 5.84863 12.8511C5.71736 12.9758 5.56639 13.094 5.41542 13.1924H6.42624L6.32778 13.6256H4.79187H4.56214H3.79419C4.24709 14.0523 4.85751 14.3148 5.52701 14.3148C5.55983 14.3148 5.59265 14.3148 5.62546 14.3148C6.40654 14.282 6.90539 13.8225 6.90539 13.3696Z" fill="#E30613"/>
</svg>
