<svg width="26" height="26" viewBox="0 0 26 26" fill="none" xmlns="http://www.w3.org/2000/svg">
<path d="M25.5 13C25.5 19.9036 19.9036 25.5 13 25.5C6.09644 25.5 0.5 19.9036 0.5 13C0.5 6.09644 6.09644 0.5 13 0.5C19.9036 0.5 25.5 6.09644 25.5 13Z" fill="#002C55" stroke="#F8F8F8"/>
<path d="M3.03345 9.46118H3.90011C4.189 9.46118 4.69456 9.60563 4.69456 10.1834C4.69456 10.689 4.33345 10.8334 4.189 10.9056C4.40567 10.9056 4.839 11.1223 4.839 11.7001C4.839 12.4945 4.26123 12.5667 3.82789 12.5667H3.03345V9.46118ZM3.46678 10.7612H3.75567C3.97234 10.7612 4.26123 10.689 4.26123 10.2556C4.26123 9.82229 3.97234 9.82229 3.68345 9.82229H3.46678V10.7612ZM3.46678 12.2056H3.82789C4.26123 12.2056 4.40567 11.989 4.40567 11.7001C4.40567 11.1945 3.90011 11.1223 3.75567 11.1223H3.46678V12.2056Z" fill="white"/>
<path d="M7.94458 9.46118H8.52236L9.75014 11.9167V9.46118H10.1835V12.5667H9.67791L8.45014 10.039V12.5667H7.94458V9.46118Z" fill="white"/>
<path d="M12.4947 12.0611C12.3502 12.1334 12.1336 12.2056 11.9169 12.2056C11.2669 12.2056 11.0502 11.6278 11.0502 10.8334C11.0502 10.4 11.1225 9.6778 11.7002 9.6778C11.9169 9.6778 12.0613 9.75003 12.1336 9.89447L12.4947 9.60558C12.278 9.46114 12.0613 9.38892 11.7002 9.38892C10.7613 9.38892 10.5447 10.1111 10.5447 10.9778C10.5447 12.2056 11.1225 12.6389 11.7725 12.6389C12.1336 12.6389 12.4225 12.4945 12.5669 12.4222L12.4947 12.0611Z" fill="white"/>
<path d="M12.6389 10.9778C12.6389 10.1111 12.9278 9.38892 13.8667 9.38892C14.8056 9.38892 15.0945 10.1834 15.0945 10.9778C15.0945 11.8445 14.8056 12.5667 13.8667 12.5667C12.9278 12.6389 12.6389 11.8445 12.6389 10.9778ZM13.8667 12.2778C14.5167 12.2778 14.5889 11.5556 14.5889 11.05C14.5889 10.5445 14.5167 9.82225 13.8667 9.82225C13.2167 9.82225 13.1445 10.5445 13.1445 11.05C13.1445 11.4834 13.2167 12.2778 13.8667 12.2778Z" fill="white"/>
<path d="M7.72789 12.5667L6.64455 9.46118H6.06677L5.05566 12.5667H5.489L6.35566 9.82229L6.789 11.1223H6.35566L6.28344 11.4834H6.86122L7.22233 12.5667H7.72789Z" fill="white"/>
<path d="M3.03345 13.4333H3.75567C4.189 13.4333 4.839 13.4333 4.839 14.3C4.839 15.0945 4.189 15.1667 3.82789 15.1667H3.46678V16.6111H3.03345V13.4333ZM3.46678 14.7333H3.75567C4.11678 14.7333 4.33345 14.6611 4.33345 14.3C4.33345 13.7945 3.97234 13.7945 3.75567 13.7945H3.46678V14.7333Z" fill="white"/>
<path d="M7.80006 13.7945H7.00562V13.4333H9.02784V13.7945H8.23339V16.5389H7.80006V13.7945Z" fill="white"/>
<path d="M14.0835 15.0222C14.0835 14.1556 14.3724 13.4333 15.3113 13.4333C16.2502 13.4333 16.5391 14.2278 16.5391 15.0222C16.5391 15.8889 16.2502 16.6111 15.3113 16.6111C14.3724 16.6111 14.0835 15.8167 14.0835 15.0222ZM15.3113 16.25C15.9613 16.25 16.0335 15.5278 16.0335 15.0222C16.0335 14.5167 15.9613 13.7945 15.3113 13.7945C14.6613 13.7945 14.5891 14.5167 14.5891 15.0222C14.5891 15.5278 14.6613 16.25 15.3113 16.25Z" fill="white"/>
<path d="M16.9001 13.4333H17.4779L18.7057 15.8889V13.4333H19.139V16.5389H18.6335L17.3335 14.0833V16.6111H16.9001V13.4333Z" fill="white"/>
<path d="M19.5723 13.4333H20.0056V16.5389H19.5723V13.4333Z" fill="white"/>
<path d="M12.639 15.0945H13.289V16.1056C13.289 16.1778 13.0001 16.25 12.7834 16.25C12.0612 16.25 11.989 15.5278 11.989 14.8778C11.989 14.3 12.1334 13.7222 12.7112 13.7222C13.0001 13.7222 13.1446 13.7945 13.2168 14.0111L13.5779 13.7222C13.3612 13.5056 13.0723 13.4333 12.7834 13.4333C11.9168 13.4333 11.5557 14.0833 11.5557 14.95C11.5557 16.1778 12.0612 16.6833 12.8557 16.6833C13.3612 16.6833 13.7223 16.4667 13.7946 16.3945V14.8056H12.7112V15.0945H12.639Z" fill="white"/>
<path d="M7.29449 16.5389L6.21116 13.4333H5.63338L4.55005 16.5389H5.0556L5.92227 13.8667L6.3556 15.0945H5.92227L5.85005 15.4556H6.42783L6.78894 16.5389H7.29449Z" fill="white"/>
<path d="M22.9669 16.5389L21.8836 13.4333H21.378L20.2947 16.5389H20.728L21.5947 13.8667L22.028 15.0945H21.5947L21.5225 15.4556H22.1725L22.4613 16.5389H22.9669Z" fill="white"/>
<path d="M11.4112 16.5389L10.3279 13.4333H9.75012L8.73901 16.5389H9.17235L10.039 13.8667L10.4723 15.0945H10.039L9.96679 15.4556H10.6168L10.9057 16.5389H11.4112Z" fill="white"/>
</svg>
