<svg width="28" height="28" viewBox="0 0 28 28" fill="none" xmlns="http://www.w3.org/2000/svg">
<path d="M13.9994 26.6976C21.0142 26.6976 26.7009 21.0127 26.7009 13.9999C26.7009 6.98719 21.0142 1.30225 13.9994 1.30225C6.98452 1.30225 1.29785 6.98719 1.29785 13.9999C1.29785 21.0127 6.98452 26.6976 13.9994 26.6976Z" fill="white" stroke="#F8F8F8"/>
<g clip-path="url(#clip0_10458_134043)">
<path d="M20.2168 13.687L17.1147 8.86889C17.0452 8.76079 16.9269 8.69629 16.7982 8.69629H14.7313C14.6668 8.69629 14.6076 8.73138 14.5771 8.78773C14.5463 8.84443 14.5488 8.91283 14.5839 8.96706L17.8175 13.9894C17.8242 14 17.8242 14.0135 17.8175 14.0241L14.5839 19.0318C14.5488 19.0861 14.5463 19.1545 14.5771 19.2112C14.608 19.2679 14.6672 19.303 14.7316 19.303H16.7993C16.9276 19.303 17.0459 19.2385 17.1154 19.1308L20.2168 14.3278C20.3423 14.1329 20.3423 13.8816 20.2168 13.687Z" fill="#FE5000"/>
<path d="M20.8539 14.6678C20.8213 14.6175 20.7663 14.5874 20.7064 14.5874C20.6465 14.5874 20.5913 14.6175 20.5587 14.6678L19.707 15.9863C19.5259 16.267 19.5259 16.6295 19.7077 16.9098L21.159 19.1511C21.2203 19.2458 21.3245 19.3024 21.4373 19.3024H23.5785C23.6331 19.3024 23.6835 19.2727 23.7097 19.2248C23.7359 19.177 23.7338 19.1185 23.704 19.0724L20.8539 14.6678Z" fill="#50007F"/>
<path d="M20.5589 13.3311C20.5915 13.3814 20.6468 13.4115 20.7066 13.4115C20.7665 13.4115 20.8219 13.3814 20.8541 13.3311L23.7039 8.92617C23.7337 8.88009 23.7358 8.82197 23.7096 8.77377C23.6833 8.72557 23.633 8.6958 23.5784 8.6958H21.4371C21.3244 8.6958 21.2202 8.75251 21.1589 8.84713L19.7076 11.0884C19.5261 11.3687 19.5258 11.7313 19.7069 12.012L20.5589 13.3311Z" fill="#50007F"/>
<path d="M13.7127 8.69238H11.9017C11.8046 8.69238 11.7263 8.77106 11.7263 8.86781V15.3081C11.7231 15.4144 11.6685 15.4463 11.6076 15.3428L7.42556 8.85222C7.36141 8.75263 7.2512 8.69238 7.13247 8.69238H5.17756C5.07372 8.69238 5 8.77709 5 8.86994V19.1297C5 19.2321 5.08364 19.3072 5.17756 19.3072H6.98858C7.08568 19.3072 7.16401 19.2285 7.16401 19.1318V12.6915C7.1672 12.5852 7.22178 12.5533 7.28273 12.6568L11.4647 19.1474C11.5289 19.247 11.6394 19.3072 11.7578 19.3072H13.7127C13.8166 19.3072 13.8903 19.2225 13.8903 19.1297V8.86994C13.8903 8.76752 13.8063 8.69238 13.7127 8.69238Z" fill="#FE5000"/>
</g>
<defs>
<clipPath id="clip0_10458_134043">
<rect width="18.775" height="10.6148" fill="white" transform="translate(5 8.69238)"/>
</clipPath>
</defs>
</svg>
