<svg width="26" height="26" viewBox="0 0 26 26" fill="none" xmlns="http://www.w3.org/2000/svg">
<circle cx="13" cy="13" r="12.5" fill="white" stroke="#F8F8F8"/>
<g clipPath="url(#clip0)">
<path d="M22.823 13.0853C19.6361 12.6298 16.5672 11.6049 14.5607 10.6938C13.3804 13.6547 11.1377 16.7864 8.83609 18.9501C8.71805 19.064 8.83609 19.2348 9.01314 19.1209C14.0295 15.7615 19.223 14.1672 22.823 13.4839C23.059 13.4269 23.059 13.1422 22.823 13.0853Z" fill="#821642"/>
<path d="M5.64901 5.28446C6.82934 8.24531 8.18671 14.2809 4.99983 20.8859C4.94081 20.9428 5.05884 21.0567 5.17688 20.9428C9.01294 18.5514 12.3179 13.8823 13.4392 10.1243C9.66212 8.24531 7.36048 6.30937 6.00311 5.0567C5.76704 4.88588 5.58999 5.0567 5.64901 5.28446Z" fill="#EE2527"/>
</g>
<defs>
<clipPath id="clip0">
<rect width="18" height="16" fill="white" transform="translate(5 5)"/>
</clipPath>
</defs>
</svg>
