<svg width="26" height="27" viewBox="0 0 26 27" fill="none" xmlns="http://www.w3.org/2000/svg">
<circle cx="13" cy="13.3" r="12.5" fill="white" stroke="#F8F8F8"/>
<g clipPath="url(#clip0)">
<path d="M12.4565 14.1597V20.5201V21.9233H13.5513V20.5201V14.1597C15.5558 16.0794 17.568 18.0068 19.5725 19.9265C18.5625 22.6865 15.9413 24.5214 13.0039 24.5214C10.0665 24.5214 7.44526 22.6865 6.4353 19.9265C8.4398 18.0068 10.4443 16.0871 12.4565 14.1597Z" fill="#00953B"/>
<path d="M12.3948 12.9108C10.2515 14.9307 8.11594 16.9429 5.97267 18.9628C4.59265 18.8009 3.20492 18.639 1.8249 18.4848C0.722429 14.8536 0.722429 10.9757 1.8249 7.34445C3.20492 7.18255 4.59265 7.02065 5.97267 6.86646C8.11594 8.87866 10.2515 10.8909 12.3948 12.9108Z" fill="#00953B"/>
<path d="M13.6052 12.9107C15.7485 10.8908 17.8841 8.87856 20.0273 6.85864C21.4073 7.02054 22.7951 7.18245 24.1751 7.33664C25.2776 10.9679 25.2776 14.8458 24.1751 18.477C22.7951 18.6389 21.4073 18.8008 20.0273 18.955C17.8841 16.9428 15.7485 14.9306 13.6052 12.9107Z" fill="#00953B"/>
<path d="M6.42749 5.89497C7.43745 3.13493 10.0587 1.30005 13.0038 1.30005C15.9412 1.30005 18.5624 3.13493 19.5724 5.89497C17.5679 7.81467 15.5557 9.73436 13.5512 11.6618V5.30133C13.7362 5.12401 13.9212 4.94669 14.1063 4.76937C14.1911 4.69998 14.1911 4.56892 14.1063 4.49954C13.9289 4.32992 13.7516 4.1526 13.5666 3.98299C13.4818 3.89819 13.3893 3.81338 13.2968 3.72857C13.2428 3.68232 13.1965 3.62835 13.1426 3.58209C13.1349 3.58209 13.1349 3.57438 13.1271 3.56667C13.1117 3.55896 13.104 3.55125 13.0886 3.54354C13.0578 3.52812 13.0269 3.52042 12.9961 3.52042C12.9652 3.52042 12.9344 3.52812 12.9036 3.54354C12.8881 3.55125 12.8804 3.55896 12.865 3.56667C12.8573 3.56667 12.8573 3.57438 12.8496 3.58209C12.7956 3.62835 12.7494 3.68232 12.6954 3.72857C12.6106 3.81338 12.5181 3.89819 12.4256 3.98299C12.2482 4.1526 12.0709 4.32992 11.8936 4.49954C11.8165 4.57663 11.8088 4.69998 11.8936 4.76937C12.0786 4.94669 12.2637 5.12401 12.4487 5.30133V11.6618C10.4442 9.73436 8.4397 7.81467 6.42749 5.89497Z" fill="#00953B"/>
</g>
<defs>
<clipPath id="clip0">
<rect width="24" height="23.2213" fill="white" transform="translate(1 1.30005)"/>
</clipPath>
</defs>
</svg>
