<svg width="26" height="26" viewBox="0 0 26 26" fill="none" xmlns="http://www.w3.org/2000/svg">
<circle cx="13" cy="13" r="12.5" fill="white" stroke="#F8F8F8"/>
<path d="M9 4V16.7934L10.3833 15.9971L11.6965 15.2358L13.1673 14.387L13.1848 14.3782C13.2023 14.3695 13.2286 14.3607 13.2461 14.352C13.2636 14.3432 13.2811 14.3345 13.3074 14.3345C13.3337 14.3257 13.3512 14.317 13.3774 14.317C13.4037 14.317 13.4212 14.3082 13.4387 14.3082C13.4562 14.3082 13.4825 14.3082 13.5 14.3082C13.5175 14.3082 13.5438 14.3082 13.5613 14.3082C13.5788 14.3082 13.6051 14.317 13.6226 14.317C13.6401 14.317 13.6663 14.3257 13.6839 14.3345C13.7014 14.3345 13.7189 14.3432 13.7451 14.352C13.7626 14.3607 13.7889 14.3695 13.8064 14.3782L13.8239 14.387L15.2947 15.2358L16.608 15.9971L17.9912 16.7934V4H9Z" fill="#F37321"/>
<path d="M15.3035 16.7496L13.8239 15.9007C13.6226 15.787 13.3774 15.787 13.1761 15.9007L11.7053 16.7496L10.392 17.5021L9 18.3072V21.9912H18V18.3072L16.6167 17.5109L15.3035 16.7496Z" fill="#F37321"/>
<path d="M18 18.3071L16.6167 17.5108L15.3035 16.7583L13.8239 15.9007C13.6226 15.787 13.3774 15.787 13.1761 15.9007L11.7053 16.7495L10.392 17.5021L9 18.3071V16.7933L10.3833 15.997L11.6965 15.2357L13.1673 14.3869L13.1848 14.3781C13.2023 14.3694 13.2286 14.3606 13.2461 14.3519C13.2636 14.3431 13.2811 14.3344 13.3074 14.3344C13.3337 14.3256 13.3512 14.3169 13.3774 14.3169C13.4037 14.3169 13.4212 14.3081 13.4387 14.3081C13.4562 14.3081 13.4825 14.3081 13.5 14.3081C13.5175 14.3081 13.5438 14.3081 13.5613 14.3081C13.5788 14.3081 13.6051 14.3169 13.6226 14.3169C13.6401 14.3169 13.6663 14.3256 13.6839 14.3344C13.7014 14.3344 13.7189 14.3431 13.7451 14.3519C13.7626 14.3606 13.7889 14.3694 13.8064 14.3781L13.8239 14.3869L15.2947 15.2357L16.608 15.997L17.9912 16.7933V18.3071" fill="white"/>
</svg>
