<svg width="26" height="26" viewBox="0 0 26 26" fill="none" xmlns="http://www.w3.org/2000/svg">
<circle cx="13" cy="13" r="12.5" fill="white" stroke="#F8F8F8"/>
<path d="M13.3185 4.0042C13.2525 4.48958 13.2902 4.9832 13.4292 5.45337C13.7728 6.28364 14.2633 7.04722 14.8778 7.70855C15.5587 8.45017 16.108 9.29937 16.5028 10.2206C16.6839 10.6675 16.7257 11.1574 16.623 11.6278C17.8189 11.868 18.9706 12.2868 20.0382 12.8696C20.8648 13.3166 21.5175 14.0212 21.8942 14.8729C22.0403 15.3552 22.035 15.8697 21.8788 16.3489C21.7319 16.7359 21.5086 17.0903 21.2218 17.3917C20.0204 18.6872 17.6429 19.6183 14.773 19.9105C13.8682 19.9849 12.96 20.013 12.0522 19.9945C8.2228 19.7753 5.14326 18.4731 4.26728 16.7032C4.08729 16.3808 3.99526 16.018 4.00019 15.6501C4.00512 15.2821 4.10684 14.9218 4.2954 14.6042C4.84987 13.7959 5.61042 13.1455 6.50068 12.7185C7.43004 12.2724 8.39789 11.9088 9.39276 11.632C9.44048 12.2667 10.6982 13.7848 11.114 14.3188C11.6739 15.0064 12.1828 15.7328 12.6368 16.4925C12.8221 16.7733 12.8927 17.1129 12.8345 17.4429C13.0227 17.2757 13.1847 17.0819 13.315 16.8678C13.4877 16.5152 13.5565 16.1219 13.5136 15.7326C13.4885 15.2457 13.3544 14.7703 13.1208 14.3406C12.7594 13.6718 12.3205 13.0466 11.8128 12.4775C11.0745 11.7424 10.5597 10.8184 10.3267 9.81008C10.2342 9.38669 10.2446 8.94774 10.3571 8.5291C10.4697 8.11045 10.6812 7.72399 10.9743 7.40126C11.0707 7.32253 11.1746 7.25307 11.2845 7.19387C11.2845 7.19387 11.2683 7.43484 11.2683 7.70771C11.2414 8.16571 11.3425 8.6222 11.5605 9.02756C12.0823 9.9108 12.7047 10.7325 13.4156 11.4767C14.4663 12.7075 14.7935 13.333 14.7935 14.1147C14.7935 14.2986 14.7935 14.4917 14.7935 14.4917C14.9463 14.3768 15.083 14.2425 15.1999 14.0921C15.4061 13.7315 15.5276 13.33 15.5556 12.9171C15.5836 12.5042 15.5174 12.0903 15.3618 11.7059C14.97 10.8413 14.4376 10.0455 13.7854 9.34997C12.9509 8.48499 12.4327 7.37059 12.313 6.18298C12.2669 5.76418 12.3355 5.3409 12.5116 4.95703C12.6877 4.57317 12.9648 4.24272 13.3142 4L13.3185 4.0042Z" fill="#FE001E"/>
</svg>
