<?xml version="1.0" encoding="utf-8"?>
<!-- Generator: Adobe Illustrator 25.3.1, SVG Export Plug-In . SVG Version: 6.00 Build 0)  -->
<svg version="1.1" id="Layer_1" xmlns="http://www.w3.org/2000/svg" xmlns:xlink="http://www.w3.org/1999/xlink" x="0px" y="0px"
	 viewBox="0 0 38.3 38.7" style="enable-background:new 0 0 38.3 38.7;" xml:space="preserve">
<style type="text/css">
	.st0{fill-rule:evenodd;clip-rule:evenodd;fill:#C4161C;}
</style>
<g>
	<path class="st0" d="M1.8,19.3c0,9.8,7.8,17.8,17.4,17.8s17.4-8,17.4-17.8S28.9,1.6,19.3,1.6S1.8,9.5,1.8,19.3z M4.3,19.3
		c0-8.1,7-15.3,15-15.3s15,7.2,15,15.3s-7,15.3-15,15.3S4.3,27.5,4.3,19.3z"/>
	<polygon class="st0" points="28.6,10.2 28.6,17.7 22.9,17.7 22.9,20.5 28.6,20.5 28.6,28.5 20.6,28.5 20.6,26.2 26.3,26.2 
		26.3,22.8 20.6,22.8 20.6,15.4 26.3,15.4 26.3,12.5 20.6,12.5 20.6,10.2 	"/>
	<polygon class="st0" points="10.3,10.2 10.3,17.7 16.1,17.7 16.1,20.5 10.3,20.5 10.3,28.5 18.3,28.5 18.3,26.2 12.6,26.2 
		12.6,22.8 18.3,22.8 18.3,15.4 12.6,15.4 12.6,12.5 18.3,12.5 18.3,10.2 	"/>
</g>
</svg>
