<svg width="26" height="26" viewBox="0 0 26 26" fill="none" xmlns="http://www.w3.org/2000/svg">
<path d="M9.26496 7.22778L9.45898 8.1886H16.3442L16.5678 7.24138L13.4929 5.7039L13.4928 5.70378L13.4919 5.70289L13.491 5.70199L13.4901 5.7011L13.4892 5.70022L13.4883 5.69934L13.4874 5.69846L13.4866 5.69759L13.4857 5.69672L13.4848 5.69586L13.484 5.695L13.4831 5.69415L13.4823 5.6933L13.4814 5.69246L13.4806 5.69162L13.4798 5.69078L13.4789 5.68995L13.4781 5.68913L13.4773 5.6883L13.4765 5.68749L13.4756 5.68667L13.4748 5.68587L13.474 5.68506L13.4732 5.68426L13.4724 5.68347L13.4716 5.68268L13.4709 5.68189L13.4701 5.68111L13.4693 5.68033L13.4685 5.67956L13.4678 5.67879L13.467 5.67803L13.4662 5.67727L13.4655 5.67652L13.4647 5.67577L13.464 5.67502L13.4633 5.67428L13.4625 5.67355L13.4618 5.67281L13.4611 5.67209L13.4603 5.67137L13.4596 5.67065L13.4589 5.66993L13.4582 5.66922L13.4575 5.66852L13.4568 5.66782L13.4561 5.66712L13.4554 5.66643L13.4547 5.66575L13.454 5.66506L13.4534 5.66439L13.4527 5.66371L13.452 5.66304L13.4513 5.66238L13.4507 5.66172L13.45 5.66107L13.4494 5.66041L13.4487 5.65977L13.4481 5.65913L13.4475 5.65849L13.4468 5.65786L13.4462 5.65723L13.4456 5.65661L13.445 5.65599L13.4443 5.65537L13.4437 5.65476L13.4431 5.65416L13.4425 5.65356L13.4419 5.65296L13.4413 5.65237L13.4407 5.65178L13.4402 5.6512L13.4396 5.65062L13.439 5.65004L13.4384 5.64947L13.4379 5.64891L13.4373 5.64835L13.4368 5.64779L13.4362 5.64724L13.4357 5.64669L13.4351 5.64615L13.4346 5.64561L13.434 5.64508L13.4335 5.64455L13.433 5.64403L13.4325 5.64351L13.432 5.64299L13.4314 5.64248L13.4309 5.64197L13.4304 5.64147L13.4299 5.64097L13.4294 5.64048L13.429 5.63999L13.4285 5.63951L13.428 5.63903L13.4275 5.63855L13.4271 5.63808L13.4266 5.63762L13.4261 5.63715L13.4257 5.6367L13.4252 5.63624L13.4248 5.6358L13.4243 5.63535L13.4239 5.63491L13.4234 5.63448L13.423 5.63405L13.4226 5.63362L13.4222 5.6332L13.4218 5.63279L13.4213 5.63237L13.4209 5.63197L13.4205 5.63156L13.4201 5.63117L13.4197 5.63077L13.4194 5.63038L13.419 5.63L13.4186 5.62962L13.4182 5.62924L13.4178 5.62887L13.4175 5.6285L13.4171 5.62814L13.4168 5.62778L13.4164 5.62743L13.416 5.62708L13.4157 5.62674L13.4154 5.6264L13.415 5.62606L13.4147 5.62573L13.4144 5.6254L13.414 5.62508L13.4137 5.62476L13.4134 5.62445L13.4131 5.62414L13.4128 5.62384L13.4125 5.62354L13.4122 5.62324L13.4119 5.62295L13.4116 5.62267L13.4114 5.62239L13.4111 5.62211L13.4108 5.62184L13.4105 5.62157L13.4103 5.62131L13.41 5.62105L13.4098 5.62079L13.4095 5.62054L13.4093 5.6203L13.409 5.62006L13.4088 5.61982L13.4086 5.61959L13.4083 5.61936L13.4081 5.61914L13.4079 5.61892L13.4077 5.6187L13.4075 5.6185L13.4073 5.61829L13.4071 5.61809L13.4069 5.61789L13.4067 5.6177L13.4065 5.61752L13.4063 5.61733L13.4061 5.61716L13.406 5.61698L13.4058 5.61681L13.4056 5.61665L13.4055 5.61649L13.4053 5.61633L13.4052 5.61618L13.405 5.61604L13.4049 5.6159L13.4047 5.61576L13.4046 5.61563L13.4045 5.6155L13.4043 5.61537L13.4042 5.61525L13.4041 5.61514L13.404 5.61503L13.4039 5.61492L13.4038 5.61482L13.4037 5.61472L13.4036 5.61463L13.4035 5.61454L13.4034 5.61446L13.4034 5.61438L13.4033 5.61431L13.4032 5.61424L13.4031 5.61417L13.4031 5.61411L13.403 5.61406L13.403 5.614L13.4029 5.61396L13.4029 5.61391L13.4028 5.61388L13.4028 5.61384L13.4028 5.61381L13.4028 5.61379L13.4027 5.61377L13.4027 5.61375L13.4027 5.61374L13.4027 5.61373L13.1093 5.90718L13.0027 5.65401L9.26496 7.22778Z" fill="#007391" stroke="white"/>
<path d="M19.341 8.36885H6.62169L12.8095 5.10309L19.341 8.36885ZM7.9918 16.3443V10.1557H8.56557V16.541V17.041H9.06557H10.6393H11.1393V16.541V16.3443V10.1557H11.7131V16.541V17.041H12.2131H13.7869H14.2869V16.541V10.1557H14.8607V16.541V17.041H15.3607H16.9344H17.4344V16.541V10.1557H18.0082V16.541V17.041H18.5082H18.5984V17.418H7.40164V16.8443H7.4918H7.9918V16.3443ZM18.9918 19.3852H6.61475V19.2049H18.9918V19.3852ZM13 0.5C6.03533 0.5 0.5 6.03533 0.5 13C0.5 19.9647 6.03533 25.5 13 25.5C19.9647 25.5 25.5 19.9647 25.5 13C25.5 6.03533 19.9647 0.5 13 0.5Z" fill="#007391" stroke="white"/>
</svg>
