<svg width="26" height="26" viewBox="0 0 26 26" fill="none" xmlns="http://www.w3.org/2000/svg">
<path d="M13 26C20.1797 26 26 20.1797 26 13C26 5.8203 20.1797 0 13 0C5.8203 0 0 5.8203 0 13C0 20.1797 5.8203 26 13 26Z" fill="#103668"/>
<path d="M3.65625 22.1C1.54375 19.825 0 16.3312 0 13C0 5.85 5.85 0 13 0C13.8938 0 14.7875 0.08125 15.6 0.24375" fill="#0059A3"/>
<path d="M7.96244 18.7688L12.5124 10.075C12.5937 9.9125 12.9187 9.9125 12.9999 10.075L17.5499 18.7688C17.6312 18.85 17.7124 18.9312 17.7937 18.9312H19.9874C20.1499 18.9312 20.2312 18.7687 20.1499 18.6062L12.9999 5.2C12.9187 5.0375 12.5937 5.0375 12.5124 5.2L5.36244 18.6062C5.28119 18.7687 5.36244 18.9312 5.52494 18.9312H7.71869C7.79994 18.9312 7.96244 18.85 7.96244 18.7688Z" fill="white"/>
<circle cx="13" cy="13" r="12.5" stroke="white"/>
</svg>
