<svg width="26" height="26" viewBox="0 0 26 26" fill="none" xmlns="http://www.w3.org/2000/svg">
<circle cx="13" cy="13" r="12.5" fill="white" stroke="#F8F8F8"/>
<path d="M6.17212 13.0006C6.17212 17.8728 8.12767 21.534 12.9999 21.534C17.8721 21.534 19.8277 17.8728 19.8277 13.0006C19.8277 8.1284 17.8721 4.46729 12.9999 4.46729C8.12767 4.46729 6.17212 8.1284 6.17212 13.0006Z" fill="white"/>
<path d="M18.2332 6.93335C19.3721 8.45002 19.8277 10.5722 19.8277 13.0222C19.8277 17.8945 17.8721 21.5389 12.9999 21.5389C10.8166 21.5389 9.20546 20.8167 8.12769 19.55C9.83324 17.6556 12.2832 14.9056 13.511 13.3278C14.7055 11.8056 16.7944 9.01668 18.2332 6.93335Z" fill="#004899"/>
<path d="M7.74434 19.0667C6.66656 17.5334 6.17212 15.4445 6.17212 13.0167C6.17212 8.12229 8.10545 4.46118 12.9999 4.46118C15.1443 4.46118 16.7555 5.1834 17.8332 6.41674C16.0721 8.37229 13.6055 11.1778 12.5221 12.5612C11.2943 14.0834 9.18879 16.9834 7.74434 19.0667Z" fill="#009FE3"/>
</svg>
