<svg width="26" height="26" viewBox="0 0 26 26" fill="none" xmlns="http://www.w3.org/2000/svg">
<circle cx="13" cy="13" r="12.5" fill="white" stroke="#F8F8F8"/>
<path fill-rule="evenodd" clip-rule="evenodd" d="M13 7C8.02944 7 4 11.0064 4 15.9486H7.49705V15.9486H9.76011V15.9487H10.3771C10.3772 17.3688 11.5284 18.52 12.9485 18.52C14.3686 18.52 15.5199 17.3688 15.52 15.9487H16.2401V15.9486H18.5028V15.9486H22C22 11.0064 17.9706 7 13 7ZM16.2401 15.9486H18.5028V15.9486H19.2228C19.2228 12.4834 16.4367 9.67427 13 9.67427C9.56317 9.67427 6.7771 12.4834 6.7771 15.9486H7.49705V15.9486H9.76011V15.9486H10.3771C10.3771 15.9486 10.3771 15.9487 10.3771 15.9487H15.52C15.52 15.9487 15.52 15.9486 15.52 15.9486H16.2401V15.9486ZM15.52 15.9486C15.52 15.9486 15.52 15.9486 15.52 15.9486H10.3771C10.3771 15.9486 10.3771 15.9486 10.3771 15.9486H15.52ZM15.52 15.9486C15.52 15.9486 15.52 15.9486 15.52 15.9486H16.2401V15.9486H18.5028C18.5027 12.9378 16.039 10.4972 12.9999 10.4972C9.96078 10.4972 7.49708 12.9378 7.49705 15.9486H9.76011V15.9486H10.3771C10.3771 15.9486 10.3771 15.9486 10.3771 15.9486H15.52ZM10.3771 15.9486C10.3771 15.9485 10.3771 15.9485 10.3771 15.9485C10.3771 14.5284 11.5284 13.3771 12.9485 13.3771C14.3687 13.3771 15.52 14.5284 15.52 15.9485C15.52 15.9485 15.52 15.9485 15.52 15.9486H16.2401C16.24 14.1876 14.7895 12.7601 13.0001 12.7601C11.2108 12.7601 9.76018 14.1876 9.76011 15.9486H10.3771Z" fill="#232B54"/>
</svg>
